
        <svg xmlns="http://www.w3.org/2000/svg" xmlns:xlink="http://www.w3.org/1999/xlink" version="1.1" width="3192" 
        height="3192" viewBox="0 0 3192 3192">
			
			<g transform="scale(9.6) translate(10, 10)">
				<defs id="SvgjsDefs1027"></defs><g id="SvgjsG1028" featureKey="rootContainer" transform="matrix(2.94811320754717,0,0,2.94811320754717,0,0)" fill="#3d84a8"><rect xmlns="http://www.w3.org/2000/svg" width="106" height="106" rx="15" ry="15"></rect></g><g id="SvgjsG1029" featureKey="symbolFeature-0" transform="matrix(1.2429225455853403,0,0,1.2429225455853403,94.51881462508183,46.83743582847661)" fill="#abedd8"><title xmlns="http://www.w3.org/2000/svg">Cloud - Dikke Lijn</title><g xmlns="http://www.w3.org/2000/svg" data-name="Samengesteld pad"><path d="M85,58A11.4,11.4,0,0,1,73.62,69.43H71.18q.24-1,.38-2h2.05a9.38,9.38,0,1,0,0-18.77H71.09a1,1,0,0,1-.94-1.34A15.1,15.1,0,0,0,42.07,36.26a1,1,0,0,1-1.25.55,9.56,9.56,0,0,0-12.73,9,9.71,9.71,0,0,0,.15,1.66,1,1,0,0,1-1,1.17h-.85a9.38,9.38,0,0,0,0,18.77h2.37q.14,1,.38,2H26.39a11.38,11.38,0,0,1-.28-22.76c0-.28,0-.56,0-.84A11.56,11.56,0,0,1,40.6,34.65a17.1,17.1,0,0,1,31.86,12h1.16A11.4,11.4,0,0,1,85,58ZM68.78,64.38A18.62,18.62,0,1,1,50.16,45.76,18.64,18.64,0,0,1,68.78,64.38ZM38.87,52.22a20.54,20.54,0,0,0,3.79,2A22.76,22.76,0,0,1,47.21,48,16.56,16.56,0,0,0,38.87,52.22Zm-5.27,11h6.66A22.59,22.59,0,0,1,41.84,56a22.58,22.58,0,0,1-4.38-2.34A16.53,16.53,0,0,0,33.6,63.27Zm3.87,11.81a22.58,22.58,0,0,1,4.38-2.34,22.58,22.58,0,0,1-1.59-7.47H33.59A16.53,16.53,0,0,0,37.46,75.08Zm9.75,5.64a22.76,22.76,0,0,1-4.55-6.15,20.54,20.54,0,0,0-3.79,2A16.56,16.56,0,0,0,47.21,80.72Zm1.92-7.55a20.52,20.52,0,0,0-4.55.75,20.74,20.74,0,0,0,4.55,5.85Zm0-7.91H42.25a20.59,20.59,0,0,0,1.49,6.82,22.5,22.5,0,0,1,5.4-.91Zm0-7.68a22.5,22.5,0,0,1-5.4-.91,20.6,20.6,0,0,0-1.48,6.59h6.88Zm0-8.6a20.74,20.74,0,0,0-4.55,5.85,20.52,20.52,0,0,0,4.55.75ZM53,48a22.76,22.76,0,0,1,4.58,6.2,20.53,20.53,0,0,0,3.85-2A16.56,16.56,0,0,0,53,48Zm-1.91,7.56a20.53,20.53,0,0,0,4.58-.72A20.73,20.73,0,0,0,51.13,49Zm0,7.68H58a20.6,20.6,0,0,0-1.47-6.56,22.52,22.52,0,0,1-5.42.88Zm0,7.9a22.52,22.52,0,0,1,5.42.88A20.59,20.59,0,0,0,58,65.27H51.13Zm4.58,2.72a20.53,20.53,0,0,0-4.58-.72v6.61A20.73,20.73,0,0,0,55.71,73.9Zm5.78,2.62a20.52,20.52,0,0,0-3.85-2A22.76,22.76,0,0,1,53,80.73,16.56,16.56,0,0,0,61.48,76.52Zm5.26-11.25H60a22.58,22.58,0,0,1-1.58,7.43,22.54,22.54,0,0,1,4.44,2.35A16.53,16.53,0,0,0,66.74,65.27Zm0-2a16.53,16.53,0,0,0-3.84-9.56,22.54,22.54,0,0,1-4.44,2.35A22.59,22.59,0,0,1,60,63.27Z"></path></g></g><g id="SvgjsG1030" featureKey="nameFeature-0" transform="matrix(2.1031614895136768,0,0,2.1031614895136768,55.999788896802166,149.55725170874248)" fill="#abedd8"><path d="M6.76 29.28 l-3.1599 0 l0 10.72 l-3.6 0 l0 -30 l7.32 0 c2.64 0 4.7 0.85332 6.18 2.56 s2.22 4.1068 2.22 7.2 c0 1.3867 -0.21332 2.66 -0.64 3.82 s-1.0334 2.16 -1.82 3 s-1.7334 1.5 -2.84 1.98 s-2.3267 0.72 -3.66 0.72 z M6.6 13.52 l-3 0.00011719 l0 12.16 l2.6 0 c1.12 0 2.0533 -0.16 2.8 -0.48 s1.3467 -0.75332 1.8 -1.3 s0.78 -1.18 0.98 -1.9 s0.3 -1.4933 0.3 -2.32 c0 -0.90668 -0.07332 -1.7334 -0.22 -2.48 s-0.42 -1.3934 -0.82 -1.94 s-0.96 -0.97336 -1.68 -1.28 s-1.64 -0.46 -2.76 -0.46 z M19.011000000000003 40 l0 -30 l3 0 l0 30 l-3 0 z M40.22200000000001 32.08 c-0.02668 1.36 -0.15992 2.5533 -0.39992 3.58 s-0.63332 1.8867 -1.18 2.58 s-1.2734 1.22 -2.18 1.58 s-2.04 0.54 -3.4 0.54 c-2.3733 0 -4.1132 -0.71332 -5.22 -2.14 s-1.66 -3.4867 -1.66 -6.18 l0 -14 c0 -2.7467 0.56 -4.82 1.68 -6.22 s2.9733 -2.1 5.56 -2.1 c2.4 0 4.12 0.71332 5.16 2.14 s1.5867 3.4734 1.64 6.14 l0.04 2.56 l-3.12 0 l-0.04 -3 c0 -0.58668 -0.05332 -1.1667 -0.16 -1.74 s-0.29336 -1.0733 -0.56004 -1.5 s-0.64 -0.77336 -1.12 -1.04 s-1.12 -0.4 -1.92 -0.4 c-1.5733 0 -2.6333 0.46 -3.18 1.38 s-0.82 2.18 -0.82 3.78 l0.04 14.2 c0 1.6267 0.26 2.8334 0.78 3.62 s1.4867 1.18 2.9 1.18 c0.8 0 1.46 -0.10668 1.98 -0.32 s0.93332 -0.52 1.24 -0.92 s0.52 -0.89332 0.64 -1.48 s0.18 -1.2534 0.18 -2 l0.04 -3.24 l3.12 0 z M56.39300000000001 37.76 c-0.77332 0.77332 -1.6932 1.3402 -2.7599 1.7002 s-2.2534 0.54 -3.56 0.54 l-6.92 0 l0 -30 l6.04 0 c1.5733 0 2.8866 0.22 3.94 0.66 s1.9 1.0333 2.54 1.78 s1.0933 1.6067 1.36 2.58 s0.4 1.9933 0.4 3.06 c0 1.0933 -0.27332 2.1 -0.82 3.02 s-1.18 1.7267 -1.9 2.42 c0.10668 0.05332 0.20668 0.12 0.3 0.2 s0.20664 0.16 0.33996 0.24 c0.34668 0.29332 0.73336 0.64664 1.16 1.06 s0.82 0.90664 1.18 1.48 s0.66 1.2266 0.9 1.96 s0.36 1.5533 0.36 2.46 c0 1.4933 -0.22 2.8066 -0.66 3.94 s-1.0733 2.1 -1.9 2.9 z M50.03300000000001 13.48 l-3.48 -0.000039062 l0 8.68 l3.88 0 c0.50668 0 0.98668 -0.10668 1.44 -0.32 s0.85332 -0.5 1.2 -0.86 s0.61336 -0.79332 0.80004 -1.3 s0.28 -1.04 0.28 -1.6 c0 -0.48 -0.06 -0.98668 -0.18 -1.52 s-0.33332 -1.0266 -0.64 -1.48 s-0.72668 -0.83332 -1.26 -1.14 s-1.2133 -0.46 -2.04 -0.46 z M50.273 25.6 l-3.72 0 l0 10.84 l3.12 0 c0.74668 0 1.48 -0.09332 2.2 -0.28 s1.36 -0.48668 1.92 -0.9 s1.0067 -0.96 1.34 -1.64 s0.5 -1.5267 0.5 -2.54 c0 -1.8933 -0.51332 -3.28 -1.54 -4.16 s-2.3 -1.32 -3.82 -1.32 z M61.724000000000004 40 l0 -30 l14.72 0 l0 3.76 l-11.36 0 l0 9.24 l11.28 0 l0 3.32 l-11.28 0 l0 9.92 l11.64 0 l0 3.76 l-15 0 z M94.615 33.64 c-0.18668 0.85332 -0.45992 1.6598 -0.81992 2.4198 s-0.83332 1.4333 -1.42 2.02 s-1.3 1.0534 -2.14 1.4 s-1.82 0.52 -2.94 0.52 l-7.32 0 l0 -30 l7.04 0 c1.9733 0 3.66 0.5 5.06 1.5 s2.3 2.6733 2.7 5.02 c0.05332 0.42668 0.10664 1.0734 0.15996 1.94 s0.09332 1.8534 0.12 2.96 s0.04 2.2734 0.04 3.5 s-0.02 2.4067 -0.06 3.54 s-0.09332 2.16 -0.16 3.08 s-0.15336 1.62 -0.26004 2.1 z M86.695 13.52 l-3.44 0.000078124 l0 22.88 l3.96 0 c1.04 0 1.8933 -0.36668 2.56 -1.1 s1.16 -1.54 1.48 -2.42 c0.10668 -0.29332 0.19336 -0.85332 0.26004 -1.68 s0.12 -1.78 0.16 -2.86 s0.06 -2.22 0.06 -3.42 s-0.01332 -2.3333 -0.04 -3.4 s-0.07336 -2 -0.14004 -2.8 s-0.14 -1.3467 -0.22 -1.64 c-0.16 -0.42668 -0.34 -0.85336 -0.54 -1.28 s-0.47332 -0.81336 -0.82 -1.16 s-0.78 -0.62 -1.3 -0.82 s-1.18 -0.3 -1.98 -0.3 z"></path></g>
			</g>
		</svg>
	